<mxfile host="Electron" modified="2024-01-19T07:59:32.368Z" agent="Mozilla/5.0 (Windows NT 10.0; Win64; x64) AppleWebKit/537.36 (KHTML, like Gecko) draw.io/22.1.11 Chrome/114.0.5735.289 Electron/25.9.8 Safari/537.36" etag="FaE19EKn6Ea9DArtdowJ" version="22.1.11" type="device">
  <diagram name="第 1 页" id="0JWsd4FqQnv5vsrJMRyd">
    <mxGraphModel dx="1434" dy="844" grid="1" gridSize="10" guides="1" tooltips="1" connect="1" arrows="1" fold="1" page="1" pageScale="1" pageWidth="827" pageHeight="1169" math="0" shadow="0">
      <root>
        <mxCell id="0" />
        <mxCell id="1" parent="0" />
        <mxCell id="wPW5bRgmhUDWO2ZYBA_w-23" style="edgeStyle=orthogonalEdgeStyle;rounded=0;orthogonalLoop=1;jettySize=auto;html=1;entryX=0;entryY=0.5;entryDx=0;entryDy=0;exitX=0.5;exitY=1;exitDx=0;exitDy=0;endArrow=open;endFill=0;" edge="1" parent="1" source="wPW5bRgmhUDWO2ZYBA_w-1" target="wPW5bRgmhUDWO2ZYBA_w-6">
          <mxGeometry relative="1" as="geometry">
            <mxPoint x="200" y="290" as="targetPoint" />
          </mxGeometry>
        </mxCell>
        <mxCell id="wPW5bRgmhUDWO2ZYBA_w-1" value="Client" style="swimlane;fontStyle=1;align=center;verticalAlign=top;childLayout=stackLayout;horizontal=1;startSize=26;horizontalStack=0;resizeParent=1;resizeParentMax=0;resizeLast=0;collapsible=1;marginBottom=0;whiteSpace=wrap;html=1;" vertex="1" parent="1">
          <mxGeometry x="120" y="200" width="160" height="34" as="geometry" />
        </mxCell>
        <mxCell id="wPW5bRgmhUDWO2ZYBA_w-3" value="" style="line;strokeWidth=1;fillColor=none;align=left;verticalAlign=middle;spacingTop=-1;spacingLeft=3;spacingRight=3;rotatable=0;labelPosition=right;points=[];portConstraint=eastwest;strokeColor=inherit;" vertex="1" parent="wPW5bRgmhUDWO2ZYBA_w-1">
          <mxGeometry y="26" width="160" height="8" as="geometry" />
        </mxCell>
        <mxCell id="wPW5bRgmhUDWO2ZYBA_w-24" style="edgeStyle=none;rounded=0;orthogonalLoop=1;jettySize=auto;html=1;endArrow=none;endFill=0;dashed=1;" edge="1" parent="1" source="wPW5bRgmhUDWO2ZYBA_w-5" target="wPW5bRgmhUDWO2ZYBA_w-6">
          <mxGeometry relative="1" as="geometry" />
        </mxCell>
        <mxCell id="wPW5bRgmhUDWO2ZYBA_w-5" value="function Operation(){&lt;br&gt;&amp;nbsp; &amp;nbsp; imp.OperationImp();&lt;br&gt;}" style="shape=note;whiteSpace=wrap;html=1;backgroundOutline=1;darkOpacity=0.05;spacingLeft=4;spacingRight=4;align=left;" vertex="1" parent="1">
          <mxGeometry x="80" y="320" width="160" height="100" as="geometry" />
        </mxCell>
        <mxCell id="wPW5bRgmhUDWO2ZYBA_w-6" value="Abstraction" style="swimlane;fontStyle=1;align=center;verticalAlign=top;childLayout=stackLayout;horizontal=1;startSize=26;horizontalStack=0;resizeParent=1;resizeParentMax=0;resizeLast=0;collapsible=1;marginBottom=0;whiteSpace=wrap;html=1;" vertex="1" parent="1">
          <mxGeometry x="320" y="240" width="160" height="90" as="geometry" />
        </mxCell>
        <mxCell id="wPW5bRgmhUDWO2ZYBA_w-29" value="#imp" style="text;html=1;strokeColor=none;fillColor=none;align=left;verticalAlign=middle;whiteSpace=wrap;rounded=0;spacingLeft=4;spacingRight=4;" vertex="1" parent="wPW5bRgmhUDWO2ZYBA_w-6">
          <mxGeometry y="26" width="160" height="30" as="geometry" />
        </mxCell>
        <mxCell id="wPW5bRgmhUDWO2ZYBA_w-8" value="" style="line;strokeWidth=1;fillColor=none;align=left;verticalAlign=middle;spacingTop=-1;spacingLeft=3;spacingRight=3;rotatable=0;labelPosition=right;points=[];portConstraint=eastwest;strokeColor=inherit;" vertex="1" parent="wPW5bRgmhUDWO2ZYBA_w-6">
          <mxGeometry y="56" width="160" height="8" as="geometry" />
        </mxCell>
        <mxCell id="wPW5bRgmhUDWO2ZYBA_w-9" value="+Operation()" style="text;strokeColor=none;fillColor=none;align=left;verticalAlign=top;spacingLeft=4;spacingRight=4;overflow=hidden;rotatable=0;points=[[0,0.5],[1,0.5]];portConstraint=eastwest;whiteSpace=wrap;html=1;" vertex="1" parent="wPW5bRgmhUDWO2ZYBA_w-6">
          <mxGeometry y="64" width="160" height="26" as="geometry" />
        </mxCell>
        <mxCell id="wPW5bRgmhUDWO2ZYBA_w-25" style="edgeStyle=none;rounded=0;orthogonalLoop=1;jettySize=auto;html=1;endArrow=diamondThin;endFill=0;" edge="1" parent="1" source="wPW5bRgmhUDWO2ZYBA_w-10" target="wPW5bRgmhUDWO2ZYBA_w-6">
          <mxGeometry relative="1" as="geometry" />
        </mxCell>
        <mxCell id="wPW5bRgmhUDWO2ZYBA_w-10" value="Implementor" style="swimlane;fontStyle=1;align=center;verticalAlign=top;childLayout=stackLayout;horizontal=1;startSize=26;horizontalStack=0;resizeParent=1;resizeParentMax=0;resizeLast=0;collapsible=1;marginBottom=0;whiteSpace=wrap;html=1;" vertex="1" parent="1">
          <mxGeometry x="680" y="255" width="160" height="60" as="geometry" />
        </mxCell>
        <mxCell id="wPW5bRgmhUDWO2ZYBA_w-12" value="" style="line;strokeWidth=1;fillColor=none;align=left;verticalAlign=middle;spacingTop=-1;spacingLeft=3;spacingRight=3;rotatable=0;labelPosition=right;points=[];portConstraint=eastwest;strokeColor=inherit;" vertex="1" parent="wPW5bRgmhUDWO2ZYBA_w-10">
          <mxGeometry y="26" width="160" height="8" as="geometry" />
        </mxCell>
        <mxCell id="wPW5bRgmhUDWO2ZYBA_w-13" value="+OperationImp()" style="text;strokeColor=none;fillColor=none;align=left;verticalAlign=top;spacingLeft=4;spacingRight=4;overflow=hidden;rotatable=0;points=[[0,0.5],[1,0.5]];portConstraint=eastwest;whiteSpace=wrap;html=1;" vertex="1" parent="wPW5bRgmhUDWO2ZYBA_w-10">
          <mxGeometry y="34" width="160" height="26" as="geometry" />
        </mxCell>
        <mxCell id="wPW5bRgmhUDWO2ZYBA_w-27" style="edgeStyle=none;rounded=0;orthogonalLoop=1;jettySize=auto;html=1;endArrow=blockThin;endFill=0;" edge="1" parent="1" source="wPW5bRgmhUDWO2ZYBA_w-14" target="wPW5bRgmhUDWO2ZYBA_w-10">
          <mxGeometry relative="1" as="geometry" />
        </mxCell>
        <mxCell id="wPW5bRgmhUDWO2ZYBA_w-14" value="ConcreteImplementorA" style="swimlane;fontStyle=1;align=center;verticalAlign=top;childLayout=stackLayout;horizontal=1;startSize=26;horizontalStack=0;resizeParent=1;resizeParentMax=0;resizeLast=0;collapsible=1;marginBottom=0;whiteSpace=wrap;html=1;" vertex="1" parent="1">
          <mxGeometry x="520" y="360" width="200" height="60" as="geometry" />
        </mxCell>
        <mxCell id="wPW5bRgmhUDWO2ZYBA_w-15" value="" style="line;strokeWidth=1;fillColor=none;align=left;verticalAlign=middle;spacingTop=-1;spacingLeft=3;spacingRight=3;rotatable=0;labelPosition=right;points=[];portConstraint=eastwest;strokeColor=inherit;" vertex="1" parent="wPW5bRgmhUDWO2ZYBA_w-14">
          <mxGeometry y="26" width="200" height="8" as="geometry" />
        </mxCell>
        <mxCell id="wPW5bRgmhUDWO2ZYBA_w-16" value="+OperationImp()" style="text;strokeColor=none;fillColor=none;align=left;verticalAlign=top;spacingLeft=4;spacingRight=4;overflow=hidden;rotatable=0;points=[[0,0.5],[1,0.5]];portConstraint=eastwest;whiteSpace=wrap;html=1;" vertex="1" parent="wPW5bRgmhUDWO2ZYBA_w-14">
          <mxGeometry y="34" width="200" height="26" as="geometry" />
        </mxCell>
        <mxCell id="wPW5bRgmhUDWO2ZYBA_w-28" style="edgeStyle=none;rounded=0;orthogonalLoop=1;jettySize=auto;html=1;endArrow=blockThin;endFill=0;" edge="1" parent="1" source="wPW5bRgmhUDWO2ZYBA_w-17" target="wPW5bRgmhUDWO2ZYBA_w-10">
          <mxGeometry relative="1" as="geometry" />
        </mxCell>
        <mxCell id="wPW5bRgmhUDWO2ZYBA_w-17" value="ConcreteImplementorB" style="swimlane;fontStyle=1;align=center;verticalAlign=top;childLayout=stackLayout;horizontal=1;startSize=26;horizontalStack=0;resizeParent=1;resizeParentMax=0;resizeLast=0;collapsible=1;marginBottom=0;whiteSpace=wrap;html=1;" vertex="1" parent="1">
          <mxGeometry x="800" y="360" width="200" height="60" as="geometry" />
        </mxCell>
        <mxCell id="wPW5bRgmhUDWO2ZYBA_w-18" value="" style="line;strokeWidth=1;fillColor=none;align=left;verticalAlign=middle;spacingTop=-1;spacingLeft=3;spacingRight=3;rotatable=0;labelPosition=right;points=[];portConstraint=eastwest;strokeColor=inherit;" vertex="1" parent="wPW5bRgmhUDWO2ZYBA_w-17">
          <mxGeometry y="26" width="200" height="8" as="geometry" />
        </mxCell>
        <mxCell id="wPW5bRgmhUDWO2ZYBA_w-19" value="+OperationImp()" style="text;strokeColor=none;fillColor=none;align=left;verticalAlign=top;spacingLeft=4;spacingRight=4;overflow=hidden;rotatable=0;points=[[0,0.5],[1,0.5]];portConstraint=eastwest;whiteSpace=wrap;html=1;" vertex="1" parent="wPW5bRgmhUDWO2ZYBA_w-17">
          <mxGeometry y="34" width="200" height="26" as="geometry" />
        </mxCell>
        <mxCell id="wPW5bRgmhUDWO2ZYBA_w-26" style="edgeStyle=none;rounded=0;orthogonalLoop=1;jettySize=auto;html=1;endArrow=blockThin;endFill=0;" edge="1" parent="1" source="wPW5bRgmhUDWO2ZYBA_w-20" target="wPW5bRgmhUDWO2ZYBA_w-6">
          <mxGeometry relative="1" as="geometry" />
        </mxCell>
        <mxCell id="wPW5bRgmhUDWO2ZYBA_w-20" value="RefinedAbstraction" style="swimlane;fontStyle=1;align=center;verticalAlign=top;childLayout=stackLayout;horizontal=1;startSize=26;horizontalStack=0;resizeParent=1;resizeParentMax=0;resizeLast=0;collapsible=1;marginBottom=0;whiteSpace=wrap;html=1;" vertex="1" parent="1">
          <mxGeometry x="320" y="360" width="160" height="34" as="geometry" />
        </mxCell>
        <mxCell id="wPW5bRgmhUDWO2ZYBA_w-21" value="" style="line;strokeWidth=1;fillColor=none;align=left;verticalAlign=middle;spacingTop=-1;spacingLeft=3;spacingRight=3;rotatable=0;labelPosition=right;points=[];portConstraint=eastwest;strokeColor=inherit;" vertex="1" parent="wPW5bRgmhUDWO2ZYBA_w-20">
          <mxGeometry y="26" width="160" height="8" as="geometry" />
        </mxCell>
      </root>
    </mxGraphModel>
  </diagram>
</mxfile>
